<?xml version="1.0" encoding="UTF-8" standalone="no"?>
<!-- Created with Inkscape (http://www.inkscape.org/) -->

<svg
   width="512"
   height="512"
   viewBox="0 0 135.46667 135.46667"
   version="1.1"
   id="svg5"
   inkscape:version="1.2.1 (9c6d41e410, 2022-07-14)"
   sodipodi:docname="favicon.svg"
   inkscape:export-filename="favicon.png"
   inkscape:export-xdpi="48"
   inkscape:export-ydpi="48"
   xmlns:inkscape="http://www.inkscape.org/namespaces/inkscape"
   xmlns:sodipodi="http://sodipodi.sourceforge.net/DTD/sodipodi-0.dtd"
   xmlns="http://www.w3.org/2000/svg"
   xmlns:svg="http://www.w3.org/2000/svg">
  <sodipodi:namedview
     id="namedview7"
     pagecolor="#ffffff"
     bordercolor="#666666"
     borderopacity="1.0"
     inkscape:pageshadow="2"
     inkscape:pageopacity="0.0"
     inkscape:pagecheckerboard="0"
     inkscape:document-units="px"
     showgrid="false"
     inkscape:zoom="0.47310635"
     inkscape:cx="31.705345"
     inkscape:cy="362.49778"
     inkscape:window-width="1920"
     inkscape:window-height="1011"
     inkscape:window-x="0"
     inkscape:window-y="32"
     inkscape:window-maximized="1"
     inkscape:current-layer="svg5"
     inkscape:showpageshadow="0"
     inkscape:deskcolor="#d1d1d1" />
  <defs
     id="defs2" />
  <path
     id="path2053-5"
     style="fill:#bf8a0f;stroke:none;stroke-width:1.05834;stroke-linecap:round;stroke-linejoin:round;fill-opacity:1"
     inkscape:transform-center-x="0.17463314"
     inkscape:transform-center-y="-0.79205839"
     d="m -35.043242,121.10594 -5.496822,4.57905 -6.765995,-2.32441 -4.497917,5.56348 -7.08949,-0.96014 -3.325896,6.33398 -7.140649,0.44183 -2.026233,6.86108 -6.917407,1.82625 -0.649056,7.12463 -6.428032,3.14037 0.753959,7.11481 -5.692159,4.33411 2.127002,6.83059 -4.737179,5.36143 3.418913,6.28437 -3.59978,6.18257 4.579049,5.49682 -2.324923,6.76599 5.563485,4.49792 -0.960148,7.08949 6.334497,3.3259 0.441316,7.14065 6.861598,2.02622 1.825728,6.91741 7.125147,0.64906 3.140376,6.42803 7.114295,-0.75344 4.334102,5.69164 6.831108,-2.12699 5.360913,4.73717 6.284889,-3.41891 6.182568,3.6003 5.496305,-4.57957 6.766513,2.32492 4.4973996,-5.56348 7.0894904,0.96015 3.3264093,-6.3345 7.1406547,-0.44132 2.026226,-6.86108 6.917407,-1.82624 0.648545,-7.12463 6.428548,-3.14089 -0.753959,-7.1143 5.692157,-4.3341 -2.127515,-6.8306 4.737172,-5.36143 -3.41891,-6.28488 3.600297,-6.18206 -4.579046,-5.49682 2.324407,-6.76599 -5.56349,-4.49792 0.960151,-7.08949 -6.333977,-3.32589 -0.441321,-7.14117 -6.861593,-2.02623 -1.826249,-6.91741 -7.1246295,-0.64854 -3.1403767,-6.42803 -7.1142947,0.75344 -4.3346191,-5.69216 -6.830591,2.12752 -5.36143,-4.73718 -6.284372,3.41891 z m 11.277349,17.44906 c 11.280775,-0.009 17.4607822,23.41519 10.382312,32.14688 -3.454057,4.26073 -13.32168,3.03104 -16.736964,-1.25884 -6.596325,-8.28548 -4.968669,-30.15103 5.813599,-30.86995 0.181598,-0.0121 0.361992,-0.0179 0.541053,-0.0181 z m -31.381032,9.62525 c 8.492382,-0.15785 19.117842,12.85128 18.270203,21.65708 -0.610046,6.33735 -10.190187,12.648 -15.918408,10.09861 -9.414248,-4.18991 -14.816605,-25.77554 -5.82135,-30.83119 1.086446,-0.61063 2.256358,-0.90195 3.469555,-0.9245 z m 61.949189,13.6214 c 0.508649,-0.002 1.020736,0.0567 1.534274,0.18138 8.741265,2.12265 8.673477,20.61602 1.423685,25.72659 -4.2090863,2.96713 -13.0455443,-0.40063 -14.7675709,-5.10924 -2.6137082,-7.14694 4.1799311,-20.76807 11.8096119,-20.79873 z m -74.528266,18.68929 c 6.133901,0.13457 14.327494,5.85019 16.077572,11.91969 1.441391,4.9987 -3.156789,12.6806 -7.699272,12.65142 -7.78286,-0.05 -18.666919,-14.74929 -14.123169,-21.85189 1.260003,-1.96959 3.344646,-2.77187 5.744869,-2.71922 z m 43.627313,1.08986 c 3.959421,-0.001 7.772242,0.95372 10.045898,2.8267 5.0215439,4.1366 7.7058557,7.44339 11.5408996,11.17658 4.0090996,3.90265 11.4087824,5.68716 11.9899664,11.73158 0.265393,4.08853 -2.807941,7.94006 -6.8802004,10.4805 -5.71219,3.5635 -13.7884426,1.90201 -20.4106426,4.05247 -5.197897,1.68795 -8.810236,4.73498 -14.738119,6.80785 -4.86777,1.70218 -11.427985,2.48371 -14.981515,0.32401 -4.180048,-2.54042 -4.035593,-8.2751 -2.614311,-12.68036 1.359249,-4.21302 3.334602,-7.1968 4.627108,-10.82725 1.577298,-4.43033 0.859493,-5.84556 3.803902,-13.33045 2.076534,-5.27894 5.709592,-7.94558 10.632427,-9.51932 2.180366,-0.69701 4.608933,-1.0416 6.984587,-1.04231 z"
     transform="translate(97.462948,-116.75323)" />
</svg>
